<?xml version="1.0" encoding="UTF-8" standalone="no"?>
<!-- Created with Inkscape (http://www.inkscape.org/) -->

<svg
   xmlns:dc="http://purl.org/dc/elements/1.1/"
   xmlns:cc="http://creativecommons.org/ns#"
   xmlns:rdf="http://www.w3.org/1999/02/22-rdf-syntax-ns#"
   xmlns:svg="http://www.w3.org/2000/svg"
   xmlns="http://www.w3.org/2000/svg"
   xmlns:sodipodi="http://sodipodi.sourceforge.net/DTD/sodipodi-0.dtd"
   xmlns:inkscape="http://www.inkscape.org/namespaces/inkscape"
   version="1.1"
   id="svg3680"
   width="384"
   height="384"
   viewBox="0 0 384 384"
   sodipodi:docname="ScheduleIcon_Debug.svg"
   inkscape:version="0.92.1 r15371"
   inkscape:label="Template"
   inkscape:export-filename="C:\Users\SibWaf\Downloads\icon-xxhdpi.png"
   inkscape:export-xdpi="36"
   inkscape:export-ydpi="36">
  <metadata
     id="metadata3686">
    <rdf:RDF>
      <cc:Work
         rdf:about="">
        <dc:format>image/svg+xml</dc:format>
        <dc:type
           rdf:resource="http://purl.org/dc/dcmitype/StillImage" />
        <dc:title></dc:title>
      </cc:Work>
    </rdf:RDF>
  </metadata>
  <defs
     id="defs3684" />
  <sodipodi:namedview
     pagecolor="#ffffff"
     bordercolor="#666666"
     borderopacity="1"
     objecttolerance="10"
     gridtolerance="10"
     guidetolerance="10"
     inkscape:pageopacity="0"
     inkscape:pageshadow="2"
     inkscape:window-width="1920"
     inkscape:window-height="1057"
     id="namedview3682"
     showgrid="false"
     inkscape:zoom="1.4142136"
     inkscape:cx="34.724368"
     inkscape:cy="208.68441"
     inkscape:window-x="-8"
     inkscape:window-y="-8"
     inkscape:window-maximized="1"
     inkscape:current-layer="layer1"
     showguides="false" />
  <g
     inkscape:groupmode="layer"
     id="layer1"
     inkscape:label="Icon"
     style="display:inline;opacity:1"
     transform="translate(-4.8324111e-6,-20.160004)">
    <circle
       id="path3691"
       cy="212.16"
       cx="191.96527"
       style="display:inline;opacity:1;fill:#d32f2f;fill-opacity:1;stroke-width:1.25008702"
       transform="skewX(0.00938089)"
       r="184"
       inkscape:label="background"
       inkscape:export-xdpi="36.57143"
       inkscape:export-ydpi="36.57143" />
    <g
       id="g3751"
       inkscape:label="T"
       style="fill:#ffffff"
       transform="matrix(0.97354495,0,0,0.97354495,-15.121682,1.7915532)"
       inkscape:export-xdpi="36.57143"
       inkscape:export-ydpi="36.57143">
      <path
         inkscape:label="T3"
         inkscape:connector-curvature="0"
         id="path3707"
         d="m 178.65039,175.85938 a 17,17 0 0 0 -17,17 v 99.20117 a 17,17 0 0 0 17,17 17,17 0 0 0 17,-17 v -99.20117 a 17,17 0 0 0 -17,-17 z"
         style="display:inline;opacity:1;fill:#ffffff;fill-opacity:1;stroke-width:2.44960856" />
      <path
         inkscape:label="T2"
         style="display:inline;opacity:1;fill:#ffffff;fill-opacity:1;stroke-width:2.44960856"
         d="m 229.25,175.85938 a 17,17 0 0 0 -17,17 v 99.20117 a 17,17 0 0 0 17,17 17,17 0 0 0 17,-17 v -99.20117 a 17,17 0 0 0 -17,-17 z"
         id="path3744"
         inkscape:connector-curvature="0" />
      <path
         inkscape:label="T1"
         inkscape:connector-curvature="0"
         id="path3746"
         d="m 281.85,175.85938 a 17,17 0 0 0 -17,17 v 99.20117 a 17,17 0 0 0 17,17 17,17 0 0 0 17,-17 v -99.20117 a 17,17 0 0 0 -17,-17 z"
         style="display:inline;opacity:1;fill:#ffffff;fill-opacity:1;stroke-width:2.44960856" />
    </g>
    <path
       style="fill:#ffffff;fill-opacity:1;stroke-width:1.46691823"
       d="m 192.39551,97.406216 c -0.56071,-0.22868 -88.91361,35.688814 -136.26587,55.258194 -2.120134,0.87618 -3.118844,3.91348 -3.080358,5.40582 0.03959,1.53506 0.920746,4.32987 2.433863,4.9666 14.175002,5.96498 15.526097,6.32078 37.918818,15.42271 0,0 -6.301377,9.37701 -8.296054,18.50496 -1.987179,9.09366 -2.179669,14.3945 -2.129629,16.7233 a 14.262433,14.262433 0 0 0 -9.408397,13.39195 14.262433,14.262433 0 0 0 8.933035,13.2189 c -3.071443,24.53247 -12.53606,40.1741 -17.118799,46.19966 -1.069011,1.40558 -3.133238,3.84282 -8.720073,8.41773 -1.008867,0.82613 -1.193433,2.42404 -0.467757,2.81227 14.97759,8.01296 14.231466,8.5618 20.003306,8.99007 2.519786,0.18697 10.645625,-1.61989 16.084412,-10.97139 8.969333,-15.42192 4.739772,-50.39628 3.810513,-57.06267 a 14.262433,14.262433 0 0 0 6.00099,-11.60457 14.262433,14.262433 0 0 0 -7.423281,-12.50018 c 1.568391,-36.15744 32.557861,-48.52961 36.937661,-50.55208 54.28705,-25.06816 40.82425,-18.67032 91.75852,-42.28455 0,0 94.49186,38.54092 102.38574,41.71411 1.9457,0.78216 5.23066,-1.27529 5.41345,-4.81447 0.15538,-3.00863 -1.64971,-5.26144 -2.45289,-5.59218 -74.73245,-30.77401 -62.24531,-25.43433 -136.3172,-55.644184 z"
       id="path3753"
       inkscape:connector-curvature="0"
       inkscape:label="hat"
       inkscape:export-xdpi="36.57143"
       inkscape:export-ydpi="36.57143" />
  </g>
</svg>
